<svg width="146" height="124" viewBox="0 0 146 124" fill="none" xmlns="http://www.w3.org/2000/svg">
<g id="Grafik_Note_seed" clip-path="url(#clip0_6407_15201)">
<path id="kreis" d="M73.2387 123.75C107.411 123.75 135.114 96.0476 135.114 61.875C135.114 27.7024 107.411 8.39675e-06 73.2387 5.40928e-06C39.0661 2.42182e-06 11.3638 27.7024 11.3638 61.875C11.3638 96.0476 39.0661 123.75 73.2387 123.75Z" fill="url(#paint0_linear_6407_15201)"/>
<g id="Grafik-5">
<g id="Group 10">
<path id="Union" d="M98.6956 85.8359C99.9915 85.8359 101.042 86.8867 101.042 88.1826C101.042 89.4787 99.9916 90.5293 98.6956 90.5293H86.8049C85.5089 90.5293 84.4583 89.4787 84.4583 88.1826C84.4584 86.8867 85.509 85.836 86.8049 85.8359H98.6956ZM72.467 85.6113C73.7621 85.6113 74.8116 86.6611 74.8118 87.9561C74.8118 89.2512 73.7621 90.3018 72.467 90.3018H63.8098C62.5148 90.3016 61.4651 89.2511 61.4651 87.9561C61.4652 86.6612 62.5149 85.6115 63.8098 85.6113H72.467ZM94.4163 76.2246C95.7113 76.2246 96.761 77.2742 96.761 78.5693C96.7609 79.8644 95.7113 80.9141 94.4163 80.9141H86.803C85.508 80.9139 84.4583 79.8643 84.4583 78.5693C84.4583 77.2743 85.508 76.2247 86.803 76.2246H94.4163ZM75.5471 75.999C76.8422 75.999 77.8918 77.0496 77.8918 78.3447C77.8917 79.6397 76.8421 80.6895 75.5471 80.6895H63.8098C62.5149 80.6893 61.4652 79.6396 61.4651 78.3447C61.4651 77.0497 62.5148 75.9992 63.8098 75.999H75.5471ZM97.2551 66.6123C98.5502 66.6123 99.6008 67.6629 99.6008 68.958C99.6007 70.253 98.5501 71.3027 97.2551 71.3027H86.803C85.5081 71.3026 84.4584 70.2529 84.4583 68.958C84.4583 67.663 85.508 66.6124 86.803 66.6123H97.2551ZM71.4045 66.3877C72.6996 66.3877 73.7493 67.4374 73.7493 68.7324C73.7492 70.0274 72.6996 71.0771 71.4045 71.0771H63.8098C62.5149 71.077 61.4652 70.0274 61.4651 68.7324C61.4651 67.4374 62.5148 66.3878 63.8098 66.3877H71.4045ZM95.801 57C97.0961 57 98.1458 58.0506 98.1458 59.3457C98.1456 60.6407 97.096 61.6904 95.801 61.6904H86.803C85.5081 61.6903 84.4584 60.6406 84.4583 59.3457C84.4583 58.0507 85.508 57.0001 86.803 57H95.801ZM53.4016 56.9971C54.6966 56.9972 55.7463 58.0468 55.7463 59.3418C55.7463 60.6368 54.6966 61.6864 53.4016 61.6865H42.3567C41.0617 61.6864 40.012 60.6368 40.012 59.3418C40.012 58.0468 41.0617 56.9972 42.3567 56.9971H53.4016ZM75.4602 56.7754C76.7551 56.7755 77.8048 57.8252 77.8049 59.1201C77.8049 60.4151 76.7552 61.4657 75.4602 61.4658H63.8098C62.5148 61.4657 61.4651 60.4151 61.4651 59.1201C61.4653 57.8253 62.5149 56.7755 63.8098 56.7754H75.4602ZM93.0393 47.3887C94.3342 47.3888 95.3839 48.4385 95.384 49.7334C95.384 51.0284 94.3343 52.079 93.0393 52.0791H86.803C85.508 52.079 84.4583 51.0284 84.4583 49.7334C84.4584 48.4385 85.5081 47.3888 86.803 47.3887H93.0393ZM51.8899 47.3848C53.185 47.3848 54.2346 48.4354 54.2346 49.7305C54.2344 51.0254 53.1849 52.0752 51.8899 52.0752H42.3567C41.0618 52.0751 40.0122 51.0253 40.012 49.7305C40.012 48.4355 41.0617 47.3849 42.3567 47.3848H51.8899ZM73.97 47.1631C75.2649 47.1633 76.3147 48.2138 76.3147 49.5088C76.3145 50.8036 75.2647 51.8533 73.97 51.8535H63.8098C62.5149 51.8534 61.4653 50.8036 61.4651 49.5088C61.4651 48.2138 62.5148 47.1632 63.8098 47.1631H73.97ZM95.801 37.7764C97.096 37.7764 98.1456 38.8261 98.1458 40.1211C98.1458 41.4162 97.0961 42.4668 95.801 42.4668H86.803C85.508 42.4667 84.4583 41.4161 84.4583 40.1211C84.4584 38.8262 85.5081 37.7765 86.803 37.7764H95.801ZM49.0198 37.7734C50.3149 37.7734 51.3655 38.8231 51.3655 40.1182C51.3654 41.4132 50.3148 42.4629 49.0198 42.4629H42.3567C41.0618 42.4628 40.0121 41.4131 40.012 40.1182C40.012 38.8232 41.0617 37.7736 42.3567 37.7734H49.0198ZM71.634 37.5479C72.9301 37.5479 73.9807 38.5985 73.9807 39.8945C73.9807 41.1906 72.9301 42.2412 71.634 42.2412H63.8118C62.5158 42.2411 61.4651 41.1905 61.4651 39.8945C61.4651 38.5985 62.5158 37.5479 63.8118 37.5479H71.634ZM51.8899 28.1611C53.1849 28.1611 54.2345 29.2109 54.2346 30.5059C54.2346 31.801 53.185 32.8516 51.8899 32.8516H42.3567C41.0617 32.8514 40.012 31.8009 40.012 30.5059C40.0121 29.211 41.0618 28.1613 42.3567 28.1611H51.8899Z" fill="white" fill-opacity="0.5"/>
<rect id="Rectangle 13" x="61.4653" y="28.1611" width="18.7739" height="4.69347" rx="2.34674" fill="#3641C6"/>
</g>
<g id="Group 11">
<path id="Vector 1" d="M137.053 40.7276C117.148 46.657 128.958 25.6628 113.479 31.0932" stroke="#404BCE" stroke-width="1.125"/>
<path id="Union_2" d="M139.215 70.0898L104.607 35.4823L103.168 31.0518C103.074 30.7637 103.348 30.4902 103.637 30.5836L108.067 32.0227L142.674 66.6302L139.215 70.0898ZM141.022 74.7736L130.073 63.8245L130.765 63.1326L141.022 73.3898L141.768 72.644L139.949 70.8252L143.41 67.3642L145.921 69.875L141.022 74.7736Z" fill="#404BCE"/>
</g>
</g>
<g id="Group 12">
<g id="wallet">
<path id="Rectangle 23" d="M13.1157 69.7275C13.1157 67.5184 14.9066 65.7275 17.1157 65.7275H46.8149C49.0241 65.7275 50.8149 67.5184 50.8149 69.7275V76.7822H13.1157V69.7275Z" fill="#DEDFE3"/>
<path id="Vector" d="M53.8544 106.86H19.8524C17.58 106.86 15.6563 106.313 14.2872 105.28C13.0378 104.338 12.3228 103.017 12.3228 101.659V69.4583C12.3228 69.4175 12.3228 69.3743 12.3228 69.3336C12.3228 66.7329 15.0405 64.916 18.9287 64.916H47.0346C48.2764 64.916 49.4419 65.3995 50.3173 66.28C51.1926 67.1604 51.671 68.3284 51.6659 69.5702L51.6532 72.3795H53.8544C56.4092 72.3795 58.4857 74.4585 58.4857 77.0108V102.226C58.4857 104.781 56.4067 106.857 53.8544 106.857V106.86ZM18.9287 66.28C15.842 66.28 13.6867 67.5345 13.6867 69.3336C13.6867 71.1327 15.7937 72.3795 18.9287 72.3795H50.2893L50.302 69.5651C50.3071 68.6898 49.9686 67.8653 49.3503 67.2444C48.7319 66.6235 47.91 66.2825 47.0346 66.2825H18.9287V66.28Z" fill="url(#paint1_linear_6407_15201)"/>
<g id="Vector_2">
<path d="M59.043 94.974H50.2995C47.3401 94.974 44.9404 92.5744 44.9404 89.6149C44.9404 86.6555 47.3401 84.2559 50.2995 84.2559H59.043" fill="white"/>
<path d="M59.043 94.974H50.2995C47.3401 94.974 44.9404 92.5744 44.9404 89.6149C44.9404 86.6555 47.3401 84.2559 50.2995 84.2559H59.043" stroke="#DEDEDE" stroke-width="0.5625" stroke-miterlimit="10"/>
</g>
<path id="Vector_3" d="M53.3019 88.2299C53.3019 87.3876 52.6174 86.7031 51.7751 86.7031C50.9328 86.7031 50.2483 87.3876 50.2483 88.2299C50.2483 88.8381 50.6045 89.3598 51.116 89.6066V92.0877C51.0957 92.3218 51.2458 92.5304 51.4392 92.5304H52.1084C52.3018 92.5304 52.452 92.3243 52.4291 92.0877V89.6066C52.9431 89.3598 53.2994 88.8381 53.2994 88.2299H53.3019Z" fill="#272B38"/>
</g>
<g id="Group" filter="url(#filter0_d_6407_15201)">
<path id="Vector_4" d="M13.0873 88.2867C13.2554 88.2867 13.4323 88.2484 13.6121 88.1688C13.7949 88.0921 13.9482 88.0125 14.0779 87.9359C16.1533 86.677 17.8898 85.5921 19.2842 84.6753C20.6787 83.7614 21.7901 82.9182 22.6215 82.1458C23.4528 81.3734 24.0425 80.5597 24.3933 79.7048C24.7441 78.8498 24.9181 77.8357 24.9181 76.6682V65.2089C24.9181 64.3658 24.7795 63.7526 24.4994 63.3693C24.2194 62.9861 23.6799 62.647 22.875 62.3463C22.1616 62.0751 21.4452 61.795 20.7259 61.5091C20.0065 61.2231 19.2783 60.9371 18.5472 60.6541C17.8131 60.3682 17.082 60.091 16.3479 59.8169C15.6138 59.5456 14.8975 59.2862 14.1988 59.0386C14.0042 58.9737 13.8185 58.9177 13.6445 58.8735C13.4706 58.8292 13.2848 58.8057 13.0903 58.8057C12.9075 58.8057 12.7306 58.8292 12.5537 58.8735C12.3798 58.9177 12.194 58.9737 11.9995 59.0386C11.286 59.298 10.5667 59.5633 9.83852 59.8375C9.11033 60.1117 8.38215 60.3858 7.64808 60.6659C6.914 60.946 6.18287 61.2261 5.44879 61.512C4.71471 61.798 3.99833 62.0751 3.29963 62.3493C2.49479 62.6353 1.95234 62.9713 1.67522 63.3605C1.39515 63.7496 1.25659 64.3658 1.25659 65.2089V76.6712C1.25659 77.8386 1.43937 78.8469 1.80199 79.6959C2.16461 80.545 2.76307 81.3498 3.59149 82.1075C4.42285 82.8651 5.53134 83.7024 6.91989 84.6163C8.30845 85.5302 10.0331 86.6358 12.0968 87.9329C12.2265 88.0096 12.3827 88.0892 12.5626 88.1658C12.7453 88.2425 12.9193 88.2837 13.0873 88.2837V88.2867Z" fill="url(#paint2_linear_6407_15201)"/>
<path id="border" d="M13.0896 89.4665C12.7594 89.4665 12.4262 89.3957 12.099 89.2542C11.8661 89.154 11.6686 89.0537 11.4917 88.9476C9.41033 87.6387 7.66211 86.5184 6.27355 85.6045C4.84077 84.6611 3.67038 83.7766 2.79774 82.9806C1.8455 82.111 1.1468 81.1617 0.719328 80.1623C0.294801 79.1688 0.0795898 77.9954 0.0795898 76.6717V65.2095C0.0795898 64.1039 0.288905 63.2726 0.719328 62.6741C1.14385 62.0815 1.85435 61.6157 2.89208 61.2443L5.0265 60.4129C5.76353 60.127 6.49761 59.8439 7.23463 59.5639C7.96871 59.2838 8.69984 59.0067 9.42802 58.7355C10.1591 58.4613 10.8814 58.1959 11.5978 57.9336L11.6273 57.9218C11.8455 57.8481 12.0577 57.7862 12.2582 57.7331C12.8154 57.5886 13.4109 57.5945 13.9386 57.7331C14.1391 57.7862 14.3514 57.8481 14.5695 57.9218C15.2977 58.1783 16.0288 58.4436 16.757 58.7148C17.494 58.989 18.234 59.2691 18.974 59.558C19.708 59.8439 20.4392 60.1299 21.1615 60.4159C21.8779 60.6989 22.5883 60.976 23.2988 61.2472C24.3248 61.6275 25.0323 62.0963 25.4569 62.6771C25.8902 63.2726 26.1025 64.101 26.1025 65.2095V76.6717C26.1025 77.9866 25.8961 79.1599 25.4893 80.1534C25.0765 81.1646 24.3837 82.1257 23.4315 83.0131C22.5559 83.8268 21.3826 84.7171 19.938 85.6664C18.5377 86.5832 16.7747 87.6888 14.6963 88.9476C14.5164 89.0567 14.316 89.1569 14.0831 89.2572C13.7558 89.3987 13.4227 89.4694 13.0925 89.4694L13.0896 89.4665ZM12.3879 60.1535C11.6833 60.41 10.9728 60.6724 10.2535 60.9406C9.52826 61.2119 8.80007 61.486 8.06895 61.7661C7.33782 62.0432 6.60964 62.3262 5.87851 62.6093L3.69396 63.4583C2.87734 63.7472 2.66802 63.9978 2.63265 64.045C2.60022 64.0922 2.43512 64.3634 2.43512 65.2065V76.6688C2.43512 77.6711 2.58548 78.532 2.88618 79.2307C3.18099 79.9205 3.68512 80.5956 4.38677 81.2354C5.16801 81.9488 6.23817 82.7566 7.56777 83.6322C8.94158 84.5372 10.678 85.6487 12.724 86.937C12.7859 86.9753 12.895 87.0284 13.0277 87.0844C13.0601 87.0991 13.0807 87.1021 13.0896 87.105C13.0984 87.105 13.119 87.0991 13.1515 87.0844C13.2841 87.0284 13.3932 86.9724 13.4758 86.9252C15.5247 85.6841 17.2641 84.5933 18.6408 83.6911C19.9734 82.8156 21.0435 82.0078 21.8218 81.2825C22.5235 80.631 23.0217 79.95 23.3047 79.2572C23.5936 78.5467 23.7411 77.677 23.7411 76.6688V65.2095C23.7411 64.3722 23.5819 64.1098 23.5494 64.0656C23.5141 64.0185 23.2988 63.7649 22.4675 63.4554C21.7393 63.1782 21.017 62.8952 20.2918 62.6093C19.5754 62.3262 18.8502 62.0403 18.119 61.7543C17.3908 61.4713 16.6656 61.1942 15.9374 60.9229C15.221 60.6576 14.5047 60.3982 13.806 60.1505C13.6585 60.1004 13.4964 60.0533 13.346 60.0149C13.2016 59.9766 13.0188 59.9707 12.8478 60.0149C12.7034 60.0533 12.5471 60.0975 12.385 60.1535H12.3879Z" fill="url(#paint3_linear_6407_15201)"/>
<g id="innen" style="mix-blend-mode:multiply" filter="url(#filter1_i_6407_15201)">
<path d="M12.39 60.153C11.6855 60.4094 10.975 60.6718 10.2556 60.9401C9.53039 61.2113 8.80221 61.4855 8.07108 61.7656C7.33995 62.0427 6.61177 62.3257 5.88064 62.6087L3.6961 63.4578C2.87947 63.7467 2.67016 63.9973 2.63478 64.0444C2.60235 64.0916 2.43726 64.3628 2.43726 65.206V76.6682C2.43726 77.6706 2.58761 78.5314 2.88832 79.2301C3.18313 79.92 3.68725 80.5951 4.3889 81.2348C5.17015 81.9483 6.24031 82.7561 7.5699 83.6316C8.94372 84.5367 10.6801 85.6481 12.7261 86.9365C12.788 86.9748 12.8971 87.0279 13.0298 87.0839C13.0622 87.0986 13.0829 87.1016 13.0917 87.1045C13.1005 87.1045 13.1212 87.0986 13.1536 87.0839C13.2863 87.0279 13.3953 86.9718 13.4779 86.9247C15.5268 85.6835 17.2662 84.5927 18.643 83.6906C19.9755 82.815 21.0457 82.0072 21.824 81.282C22.5256 80.6305 23.0238 79.9495 23.3069 79.2567C23.5958 78.5462 23.7432 77.6765 23.7432 76.6682V65.2089C23.7432 64.3717 23.584 64.1093 23.5516 64.0651C23.5162 64.0179 23.301 63.7644 22.4696 63.4548C21.7414 63.1777 21.0191 62.8947 20.2939 62.6087C19.5775 62.3257 18.8523 62.0397 18.1212 61.7538C17.393 61.4708 16.6677 61.1936 15.9396 60.9224C15.2232 60.6571 14.5068 60.3976 13.8081 60.15C13.6607 60.0999 13.4985 60.0527 13.3482 60.0144C13.2037 59.9761 13.0209 59.9702 12.8499 60.0144C12.7055 60.0527 12.5492 60.0969 12.3871 60.153H12.39Z" fill="white" style="mix-blend-mode:multiply"/>
</g>
<path id="Union_3" d="M8.79528 67.7511C8.8824 67.8382 9.02314 67.8387 9.11446 67.756C10.9946 66.0529 13.8298 65.6715 16.1449 67.0079C19.0154 68.6654 19.9992 72.3364 18.3421 75.2071C16.6846 78.078 13.0128 79.0619 10.1419 77.4044C8.75852 76.6055 7.81315 75.3374 7.39095 73.9191L7.31283 73.6339L7.29427 73.4933C7.2817 73.1667 7.49885 72.8654 7.82845 72.7843C8.1583 72.7035 8.49112 72.8698 8.63119 73.1651L8.67904 73.2999L8.73861 73.5187C9.06229 74.6061 9.78575 75.5749 10.8451 76.1866C13.0433 77.4558 15.8552 76.7023 17.1243 74.504C18.3931 72.3059 17.6397 69.4948 15.4417 68.2257C13.6923 67.2158 11.5553 67.4877 10.1158 68.7485C10.0212 68.8313 10.0204 68.9762 10.1092 69.0651L11.4593 70.4152C11.5914 70.5472 11.5144 70.7733 11.3293 70.7974L7.09882 71.3481C6.95238 71.3672 6.8276 71.2424 6.84666 71.0959L7.39737 66.8655C7.42148 66.6803 7.64757 66.6034 7.77959 66.7354L8.79528 67.7511Z" fill="#FD284B"/>
</g>
</g>
</g>
<defs>
<filter id="filter0_d_6407_15201" x="0.0795898" y="57.627" width="26.3042" height="32.4053" filterUnits="userSpaceOnUse" color-interpolation-filters="sRGB">
<feFlood flood-opacity="0" result="BackgroundImageFix"/>
<feColorMatrix in="SourceAlpha" type="matrix" values="0 0 0 0 0 0 0 0 0 0 0 0 0 0 0 0 0 0 127 0" result="hardAlpha"/>
<feOffset dx="0.28125" dy="0.5625"/>
<feComposite in2="hardAlpha" operator="out"/>
<feColorMatrix type="matrix" values="0 0 0 0 0.384653 0 0 0 0 0.43181 0 0 0 0 0.483333 0 0 0 1 0"/>
<feBlend mode="normal" in2="BackgroundImageFix" result="effect1_dropShadow_6407_15201"/>
<feBlend mode="normal" in="SourceGraphic" in2="effect1_dropShadow_6407_15201" result="shape"/>
</filter>
<filter id="filter1_i_6407_15201" x="2.43726" y="59.9834" width="21.3059" height="27.1211" filterUnits="userSpaceOnUse" color-interpolation-filters="sRGB">
<feFlood flood-opacity="0" result="BackgroundImageFix"/>
<feBlend mode="normal" in="SourceGraphic" in2="BackgroundImageFix" result="shape"/>
<feColorMatrix in="SourceAlpha" type="matrix" values="0 0 0 0 0 0 0 0 0 0 0 0 0 0 0 0 0 0 127 0" result="hardAlpha"/>
<feOffset/>
<feGaussianBlur stdDeviation="0.5625"/>
<feComposite in2="hardAlpha" operator="arithmetic" k2="-1" k3="1"/>
<feColorMatrix type="matrix" values="0 0 0 0 0 0 0 0 0 0 0 0 0 0 0 0 0 0 0.5 0"/>
<feBlend mode="normal" in2="shape" result="effect1_innerShadow_6407_15201"/>
</filter>
<linearGradient id="paint0_linear_6407_15201" x1="72.9743" y1="123.823" x2="72.9742" y2="0.0362552" gradientUnits="userSpaceOnUse">
<stop stop-color="#3641C6"/>
<stop offset="1" stop-color="#A2EDF4"/>
</linearGradient>
<linearGradient id="paint1_linear_6407_15201" x1="12.3228" y1="85.8867" x2="58.4857" y2="85.8867" gradientUnits="userSpaceOnUse">
<stop stop-color="#CED0D5"/>
<stop offset="0.144231" stop-color="#EEEFF2"/>
<stop offset="0.317308" stop-color="white"/>
<stop offset="1" stop-color="white"/>
</linearGradient>
<linearGradient id="paint2_linear_6407_15201" x1="2.43583" y1="58.8057" x2="24.8414" y2="58.8057" gradientUnits="userSpaceOnUse">
<stop offset="0.369792" stop-color="white"/>
<stop offset="0.802083" stop-color="#CACACA"/>
</linearGradient>
<linearGradient id="paint3_linear_6407_15201" x1="0.0795898" y1="89.3163" x2="25.9592" y2="89.3163" gradientUnits="userSpaceOnUse">
<stop stop-color="white"/>
<stop offset="1" stop-color="#C5C8D0"/>
</linearGradient>
<clipPath id="clip0_6407_15201">
<rect width="145.841" height="123.75" fill="white" transform="matrix(-1 0 0 -1 145.92 123.75)"/>
</clipPath>
</defs>
</svg>
