<svg width="16" height="17" viewBox="0 0 16 17" fill="none" xmlns="http://www.w3.org/2000/svg">
<g id="ph:hand-coins">
<path id="Vector" d="M14.3956 9.72641C14.2096 9.58325 13.993 9.48493 13.7628 9.43908C13.5325 9.39323 13.2948 9.40108 13.0681 9.46203L10.4531 10.0633C10.514 9.80628 10.5158 9.53884 10.4586 9.281C10.4014 9.02317 10.2866 8.78163 10.1227 8.57449C9.95887 8.36735 9.75026 8.19998 9.51253 8.08493C9.2748 7.96988 9.01411 7.91013 8.75 7.91016H5.62125C5.3585 7.9095 5.09822 7.96091 4.85546 8.06143C4.61269 8.16195 4.39225 8.30958 4.20688 8.49578L2.79313 9.91016H1C0.734784 9.91016 0.48043 10.0155 0.292893 10.2031C0.105357 10.3906 0 10.6449 0 10.9102L0 13.4102C0 13.6754 0.105357 13.9297 0.292893 14.1173C0.48043 14.3048 0.734784 14.4102 1 14.4102H7.5C7.54088 14.4101 7.5816 14.4051 7.62125 14.3952L11.6213 13.3952C11.6467 13.3891 11.6716 13.3807 11.6956 13.3702L14.125 12.3364L14.1525 12.3239C14.386 12.2072 14.5859 12.0331 14.7335 11.8178C14.881 11.6025 14.9714 11.3531 14.9959 11.0933C15.0205 10.8335 14.9785 10.5716 14.8739 10.3325C14.7693 10.0933 14.6056 9.88477 14.3981 9.72641H14.3956ZM1 10.9102H2.5V13.4102H1V10.9102ZM13.7144 11.4233L11.3394 12.4345L7.4375 13.4102H3.5V10.617L4.91438 9.20328C5.0069 9.11002 5.11704 9.03608 5.23839 8.98576C5.35974 8.93544 5.48988 8.90974 5.62125 8.91016H8.75C8.94891 8.91016 9.13968 8.98918 9.28033 9.12983C9.42098 9.27048 9.5 9.46124 9.5 9.66016C9.5 9.85907 9.42098 10.0498 9.28033 10.1905C9.13968 10.3311 8.94891 10.4102 8.75 10.4102H7C6.86739 10.4102 6.74022 10.4628 6.64645 10.5566C6.55268 10.6504 6.5 10.7775 6.5 10.9102C6.5 11.0428 6.55268 11.1699 6.64645 11.2637C6.74022 11.3575 6.86739 11.4102 7 11.4102H9C9.03764 11.4101 9.07515 11.4059 9.11188 11.3977L13.2994 10.4345L13.3188 10.4295C13.4466 10.394 13.583 10.4071 13.7018 10.4661C13.8206 10.5252 13.9134 10.6261 13.9622 10.7494C14.0111 10.8728 14.0126 11.0098 13.9665 11.1342C13.9204 11.2586 13.8299 11.3616 13.7125 11.4233H13.7144ZM10.25 6.91016C10.3735 6.9103 10.4969 6.90026 10.6188 6.88016C10.7558 7.28737 11.0067 7.64682 11.3416 7.916C11.6765 8.18518 12.0815 8.35283 12.5086 8.39914C12.9358 8.44546 13.3673 8.36849 13.7521 8.17733C14.1369 7.98618 14.459 7.68884 14.6801 7.32047C14.9013 6.9521 15.0124 6.5281 15.0002 6.09859C14.9881 5.66909 14.8532 5.25205 14.6115 4.89678C14.3699 4.54151 14.0315 4.26286 13.6365 4.09378C13.2415 3.9247 12.8064 3.87226 12.3825 3.94266C12.2505 3.55031 12.0128 3.20199 11.6956 2.93602C11.3784 2.67005 10.994 2.49675 10.5846 2.43518C10.1752 2.37361 9.75684 2.42617 9.37543 2.58707C8.99402 2.74797 8.66439 3.01097 8.42282 3.34713C8.18125 3.6833 8.0371 4.07959 8.00623 4.49239C7.97537 4.9052 8.05898 5.31852 8.24788 5.68687C8.43677 6.05521 8.72362 6.36431 9.07687 6.58014C9.43011 6.79597 9.83604 6.91016 10.25 6.91016ZM14 6.16016C14 6.40738 13.9267 6.64906 13.7893 6.85462C13.652 7.06018 13.4568 7.2204 13.2284 7.31501C12.9999 7.40962 12.7486 7.43437 12.5061 7.38614C12.2637 7.33791 12.0409 7.21886 11.8661 7.04404C11.6913 6.86923 11.5723 6.6465 11.524 6.40402C11.4758 6.16154 11.5005 5.91021 11.5952 5.6818C11.6898 5.4534 11.85 5.25817 12.0555 5.12082C12.2611 4.98347 12.5028 4.91016 12.75 4.91016C13.0815 4.91016 13.3995 5.04185 13.6339 5.27627C13.8683 5.51069 14 5.82864 14 6.16016ZM10.25 3.41016C10.5227 3.41029 10.7879 3.4996 11.0051 3.66446C11.2223 3.82931 11.3796 4.06068 11.4531 4.32328C11.197 4.50347 10.9814 4.73512 10.82 5.00342C10.6585 5.27172 10.5549 5.57076 10.5156 5.88141C10.4283 5.90027 10.3393 5.9099 10.25 5.91016C9.91848 5.91016 9.60054 5.77846 9.36612 5.54404C9.1317 5.30962 9 4.99168 9 4.66016C9 4.32864 9.1317 4.01069 9.36612 3.77627C9.60054 3.54185 9.91848 3.41016 10.25 3.41016Z" fill="#272B38"/>
</g>
</svg>
