<svg width="20" height="21" viewBox="0 0 20 21" fill="none" xmlns="http://www.w3.org/2000/svg">
<g id="octicon:key-16">
<path id="Vector" d="M13.125 0.75C14.0948 0.752194 15.0531 0.959563 15.937 1.35848C16.8209 1.7574 17.6104 2.33884 18.2536 3.06459C18.8969 3.79034 19.3792 4.64399 19.669 5.56943C19.9589 6.49487 20.0496 7.47117 19.9353 8.43417C19.8209 9.39717 19.5041 10.3251 19.0056 11.1569C18.5072 11.9888 17.8383 12.7057 17.043 13.2607C16.2478 13.8157 15.3441 14.1961 14.3913 14.3769C13.4386 14.5577 12.4583 14.5349 11.515 14.31L10.35 15.475C10.2631 15.5621 10.1598 15.6313 10.0461 15.6785C9.93245 15.7256 9.81058 15.75 9.6875 15.75H8.75V16.6875C8.74996 16.8106 8.72565 16.9325 8.67846 17.0461C8.63128 17.1598 8.56214 17.2631 8.475 17.35L7.85 17.975C7.76307 18.0621 7.65981 18.1313 7.54613 18.1785C7.43245 18.2257 7.31058 18.25 7.1875 18.25H6.25V19.1875C6.24996 19.3106 6.22565 19.4325 6.17846 19.5461C6.13128 19.6598 6.06214 19.7631 5.975 19.85L5.35 20.475C5.26307 20.5621 5.15981 20.6313 5.04613 20.6785C4.93245 20.7257 4.81058 20.75 4.6875 20.75H2.1875C1.60734 20.75 1.05094 20.5195 0.640704 20.1093C0.230468 19.6991 0 19.1427 0 18.5625L0 16.0625C0 15.8138 0.09875 15.5763 0.275 15.4L6.44 9.235C6.19648 8.22403 6.18546 7.17099 6.40779 6.15515C6.63011 5.13931 7.07998 4.18714 7.72352 3.37031C8.36707 2.55349 9.18753 1.89329 10.1231 1.43941C11.0587 0.985542 12.0851 0.749822 13.125 0.75ZM8.125 7.625C8.12375 8.16375 8.21125 8.7 8.38125 9.21125C8.43646 9.37649 8.44454 9.55384 8.40457 9.72341C8.36461 9.89298 8.27819 10.0481 8.155 10.1713L1.875 16.45V18.5625C1.875 18.735 2.015 18.875 2.1875 18.875H4.3L4.375 18.8V17.3125C4.375 17.0639 4.47377 16.8254 4.64959 16.6496C4.8254 16.4738 5.06386 16.375 5.3125 16.375H6.8L6.875 16.3V14.8125C6.875 14.5639 6.97377 14.3254 7.14959 14.1496C7.3254 13.9738 7.56386 13.875 7.8125 13.875H9.3L10.5788 12.5938C10.7021 12.4708 10.8572 12.3846 11.0268 12.3448C11.1963 12.3051 11.3736 12.3134 11.5387 12.3687C12.5418 12.7043 13.6254 12.7131 14.6337 12.394C15.6421 12.0748 16.5233 11.4442 17.1506 10.5926C17.7779 9.74107 18.119 8.71254 18.1249 7.6549C18.1308 6.59725 17.8012 5.56498 17.1834 4.7065C16.5656 3.84802 15.6915 3.20756 14.6867 2.8772C13.682 2.54684 12.5984 2.5436 11.5917 2.86795C10.585 3.1923 9.70706 3.82752 9.08415 4.68229C8.46124 5.53706 8.12543 6.56734 8.125 7.625ZM13.75 8.25C13.4185 8.25 13.1005 8.1183 12.8661 7.88388C12.6317 7.64946 12.5 7.33152 12.5 7C12.5 6.66848 12.6317 6.35054 12.8661 6.11612C13.1005 5.8817 13.4185 5.75 13.75 5.75C14.0815 5.75 14.3995 5.8817 14.6339 6.11612C14.8683 6.35054 15 6.66848 15 7C15 7.33152 14.8683 7.64946 14.6339 7.88388C14.3995 8.1183 14.0815 8.25 13.75 8.25Z" fill="#313BBF"/>
</g>
</svg>
