<svg width="18" height="18" viewBox="0 0 18 18" fill="none" xmlns="http://www.w3.org/2000/svg">
<g id="Group">
<path id="Vector" d="M0.666748 8.99984C0.666748 13.6023 4.39758 17.3332 9.00008 17.3332C13.6026 17.3332 17.3334 13.6023 17.3334 8.99984C17.3334 4.39734 13.6026 0.666504 9.00008 0.666504C4.39758 0.666504 0.666748 4.39734 0.666748 8.99984Z" stroke="#313BBF" stroke-width="1.25" stroke-linecap="round" stroke-linejoin="round"/>
<path id="Vector_2" d="M9.83332 0.708008C9.83332 0.708008 12.3333 3.99967 12.3333 8.99967C12.3333 13.9997 9.83332 17.2913 9.83332 17.2913M8.16665 17.2913C8.16665 17.2913 5.66665 13.9997 5.66665 8.99967C5.66665 3.99967 8.16665 0.708008 8.16665 0.708008M1.19165 11.9163H16.8083M1.19165 6.08301H16.8083" stroke="#313BBF" stroke-width="1.25" stroke-linecap="round" stroke-linejoin="round"/>
</g>
</svg>
