<svg width="18" height="18" viewBox="0 0 18 18" fill="none" xmlns="http://www.w3.org/2000/svg">
<g id="Group">
<g id="Vector">
<path d="M17.3334 14.8332H10.6667H17.3334ZM0.666748 14.8332H7.33341H0.666748ZM9.00008 13.1665V10.6665V13.1665Z" fill="#313BBF"/>
<path d="M17.3334 14.8332H10.6667M0.666748 14.8332H7.33341M9.00008 13.1665V10.6665" stroke="#313BBF" stroke-width="1.25" stroke-linecap="round"/>
</g>
<path id="Vector_2" d="M9.00016 16.4998C9.92064 16.4998 10.6668 15.7536 10.6668 14.8332C10.6668 13.9127 9.92064 13.1665 9.00016 13.1665C8.07969 13.1665 7.3335 13.9127 7.3335 14.8332C7.3335 15.7536 8.07969 16.4998 9.00016 16.4998Z" stroke="#313BBF" stroke-width="1.25"/>
<path id="Vector_3" d="M3.16675 5.6665C2.50371 5.6665 1.86782 5.9299 1.39898 6.39874C0.93014 6.86758 0.666748 7.50346 0.666748 8.1665C0.666748 8.82954 0.93014 9.46543 1.39898 9.93427C1.86782 10.4031 2.50371 10.6665 3.16675 10.6665H14.8334C15.1617 10.6665 15.4868 10.6018 15.7901 10.4762C16.0934 10.3506 16.369 10.1664 16.6012 9.93427C16.8333 9.70212 17.0175 9.42653 17.1431 9.12321C17.2688 8.8199 17.3334 8.49481 17.3334 8.1665C17.3334 7.8382 17.2688 7.51311 17.1431 7.2098C17.0175 6.90648 16.8333 6.63088 16.6012 6.39874C16.369 6.16659 16.0934 5.98244 15.7901 5.8568C15.4868 5.73117 15.1617 5.6665 14.8334 5.6665M3.16675 5.6665H14.8334M3.16675 5.6665C2.50371 5.6665 1.86782 5.40311 1.39898 4.93427C0.93014 4.46543 0.666748 3.82955 0.666748 3.1665C0.666748 2.50346 0.93014 1.86758 1.39898 1.39874C1.86782 0.929896 2.50371 0.666504 3.16675 0.666504H14.8334C15.4965 0.666504 16.1323 0.929896 16.6012 1.39874C17.07 1.86758 17.3334 2.50346 17.3334 3.1665C17.3334 3.82955 17.07 4.46543 16.6012 4.93427C16.1323 5.40311 15.4965 5.6665 14.8334 5.6665" stroke="#313BBF" stroke-width="1.25"/>
<path id="Vector_4" d="M9.8335 3.1665H14.8335M9.8335 8.1665H14.8335" stroke="#313BBF" stroke-width="1.25" stroke-linecap="round"/>
<path id="Vector_5" d="M3.99976 2.75C4.22977 2.75 4.41657 2.93605 4.41675 3.16602C4.41675 3.39613 4.22987 3.58301 3.99976 3.58301C3.76979 3.58283 3.58374 3.39603 3.58374 3.16602C3.58392 2.93616 3.7699 2.75018 3.99976 2.75Z" fill="#313BBF" stroke="#313BBF" stroke-width="0.833333"/>
<path id="Vector_6" d="M3.99976 7.75C4.22977 7.75 4.41657 7.93605 4.41675 8.16602C4.41675 8.39613 4.22987 8.58301 3.99976 8.58301C3.76979 8.58283 3.58374 8.39603 3.58374 8.16602C3.58392 7.93616 3.7699 7.75018 3.99976 7.75Z" fill="#313BBF" stroke="#313BBF" stroke-width="0.833333"/>
</g>
</svg>
