<svg width="201" height="201" viewBox="0 0 201 201" fill="none" xmlns="http://www.w3.org/2000/svg">
<g id="App-Logo-v1">
<path id="Vector" d="M125.833 0.291016H75.1667C49.0309 0.291016 35.963 0.291016 25.9804 5.37738C17.1995 9.85147 10.0605 16.9906 5.58636 25.7715C0.5 35.754 0.5 48.8219 0.5 74.9577V125.624C0.5 151.76 0.5 164.828 5.58636 174.811C10.0605 183.591 17.1995 190.731 25.9804 195.205C35.963 200.291 49.0309 200.291 75.1667 200.291H125.833C151.969 200.291 165.037 200.291 175.02 195.205C183.8 190.731 190.94 183.591 195.414 174.811C200.5 164.828 200.5 151.76 200.5 125.624V74.9577C200.5 48.8219 200.5 35.754 195.414 25.7715C190.94 16.9906 183.8 9.85147 175.02 5.37738C165.037 0.291016 151.969 0.291016 125.833 0.291016Z" fill="url(#paint0_linear_6336_13976)"/>
<path id="Vector_2" d="M152.167 81.1688C154.053 81.1688 154.995 81.1688 155.581 80.583C156.167 79.9972 156.167 79.0544 156.167 77.1688V71.5021C156.167 69.6165 156.167 68.6737 155.581 68.0879C154.995 67.5021 154.053 67.5021 152.167 67.5021H146.834C144.948 67.5021 144.005 67.5021 143.419 66.9163C142.834 66.3305 142.834 65.3877 142.834 63.5021V58.1688C142.834 56.2832 142.834 55.3404 142.248 54.7546C141.662 54.1688 140.719 54.1688 138.834 54.1688H133.5C131.615 54.1688 130.672 54.1688 130.086 53.583C129.5 52.9972 129.5 52.0544 129.5 50.1688V44.8354C129.5 42.9498 129.5 42.007 128.914 41.4212C128.329 40.8354 127.386 40.8354 125.5 40.8354H79.8336C77.948 40.8354 77.0052 40.8354 76.4194 41.4212C75.8336 42.007 75.8336 42.9498 75.8336 44.8354V50.1688C75.8336 52.0544 75.8336 52.9972 75.2478 53.583C74.662 54.1688 73.7192 54.1688 71.8336 54.1688H66.5003C64.6147 54.1688 63.6719 54.1688 63.0861 54.7546C62.5003 55.3404 62.5003 56.2832 62.5003 58.1688V63.5021C62.5003 65.3877 62.5003 66.3305 61.9145 66.9163C61.3287 67.5021 60.3859 67.5021 58.5003 67.5021H53.1669C51.2813 67.5021 50.3385 67.5021 49.7527 68.0879C49.1669 68.6737 49.1669 69.6165 49.1669 71.5021V76.8354C49.1669 78.7211 49.1669 79.6639 48.5812 80.2497C47.9954 80.8354 47.0526 80.8354 45.1669 80.8354H39.8336C37.948 80.8354 37.0052 80.8354 36.4194 81.4212C35.8336 82.007 35.8336 82.9498 35.8336 84.8354V90.5021C35.8336 92.3877 35.8336 93.3305 36.4194 93.9163C37.0052 94.5021 37.948 94.5021 39.8336 94.5021H45.167C47.0526 94.5021 47.9954 94.5021 48.5812 95.0879C49.1669 95.6737 49.1669 96.6165 49.1669 98.5021V103.502C49.1669 105.388 49.1669 106.331 48.5812 106.916C47.9954 107.502 47.0526 107.502 45.1669 107.502H39.8336C37.948 107.502 37.0052 107.502 36.4194 108.088C35.8336 108.674 35.8336 109.616 35.8336 111.502V117.169C35.8336 119.054 35.8336 119.997 36.4194 120.583C37.0052 121.169 37.948 121.169 39.8336 121.169H45.167C47.0526 121.169 47.9954 121.169 48.5812 121.755C49.1669 122.34 49.1669 123.283 49.1669 125.169V130.502C49.1669 132.388 49.1669 133.331 49.7527 133.916C50.3385 134.502 51.2813 134.502 53.1669 134.502H58.5003C60.3859 134.502 61.3287 134.502 61.9145 135.088C62.5003 135.674 62.5003 136.616 62.5003 138.502V143.835C62.5003 145.721 62.5003 146.664 63.0861 147.25C63.6719 147.835 64.6147 147.835 66.5003 147.835H71.8336C73.7192 147.835 74.662 147.835 75.2478 148.421C75.8336 149.007 75.8336 149.95 75.8336 151.835V157.169C75.8336 159.054 75.8336 159.997 76.4194 160.583C77.0052 161.169 77.948 161.169 79.8336 161.169H125.5C127.386 161.169 128.329 161.169 128.914 160.583C129.5 159.997 129.5 159.054 129.5 157.169V151.835C129.5 149.95 129.5 149.007 130.086 148.421C130.672 147.835 131.615 147.835 133.5 147.835H138.834C140.719 147.835 141.662 147.835 142.248 147.25C142.834 146.664 142.834 145.721 142.834 143.835V138.502C142.834 136.616 142.834 135.674 143.419 135.088C144.005 134.502 144.948 134.502 146.834 134.502H152.167C154.053 134.502 154.995 134.502 155.581 133.916C156.167 133.331 156.167 132.388 156.167 130.502V124.835C156.167 122.95 156.167 122.007 155.581 121.421C154.995 120.835 154.053 120.835 152.167 120.835H146.5C144.615 120.835 143.672 120.835 143.086 121.421C142.5 122.007 142.5 122.95 142.5 124.835V130.169C142.5 132.054 142.5 132.997 141.914 133.583C141.329 134.169 140.386 134.169 138.5 134.169H133.167C131.281 134.169 130.339 134.169 129.753 134.755C129.167 135.34 129.167 136.283 129.167 138.169V143.502C129.167 145.388 129.167 146.331 128.581 146.916C127.995 147.502 127.053 147.502 125.167 147.502H80.1669C78.2813 147.502 77.3385 147.502 76.7527 146.916C76.1669 146.331 76.1669 145.388 76.1669 143.502V138.169C76.1669 136.283 76.1669 135.34 75.5812 134.755C74.9954 134.169 74.0526 134.169 72.1669 134.169H66.8336C64.948 134.169 64.0052 134.169 63.4194 133.583C62.8336 132.997 62.8336 132.054 62.8336 130.169V125.169C62.8336 123.283 62.8336 122.34 63.4194 121.755C64.0052 121.169 64.948 121.169 66.8336 121.169H112.167C114.053 121.169 114.995 121.169 115.581 120.583C116.167 119.997 116.167 119.054 116.167 117.169V111.502C116.167 109.616 116.167 108.674 115.581 108.088C114.995 107.502 114.053 107.502 112.167 107.502H66.8336C64.948 107.502 64.0052 107.502 63.4194 106.916C62.8336 106.331 62.8336 105.388 62.8336 103.502V98.5021C62.8336 96.6165 62.8336 95.6737 63.4194 95.0879C64.0052 94.5021 64.948 94.5021 66.8336 94.5021H125.5C127.386 94.5021 128.329 94.5021 128.914 93.9163C129.5 93.3305 129.5 92.3877 129.5 90.5021V84.8354C129.5 82.9498 129.5 82.007 128.914 81.4212C128.329 80.8354 127.386 80.8354 125.5 80.8354H66.8336C64.948 80.8354 64.0052 80.8354 63.4194 80.2497C62.8336 79.6639 62.8336 78.7211 62.8336 76.8354V71.8354C62.8336 69.9498 62.8336 69.007 63.4194 68.4212C64.0052 67.8354 64.948 67.8354 66.8336 67.8354H72.167C74.0526 67.8354 74.9954 67.8354 75.5812 67.2497C76.1669 66.6639 76.1669 65.7211 76.1669 63.8354V58.5021C76.1669 56.6165 76.1669 55.6737 76.7527 55.0879C77.3385 54.5021 78.2813 54.5021 80.1669 54.5021H125.167C127.053 54.5021 127.995 54.5021 128.581 55.0879C129.167 55.6737 129.167 56.6165 129.167 58.5021V63.8355C129.167 65.7211 129.167 66.6639 129.753 67.2497C130.339 67.8354 131.281 67.8354 133.167 67.8354H138.5C140.386 67.8354 141.329 67.8354 141.914 68.4212C142.5 69.007 142.5 69.9498 142.5 71.8354V77.1688C142.5 79.0544 142.5 79.9972 143.086 80.583C143.672 81.1688 144.615 81.1688 146.5 81.1688H152.167Z" fill="white"/>
<path id="Subtract" d="M200.5 134.39H195.025C189.369 134.39 186.541 134.39 184.783 132.632C183.026 130.875 183.025 128.047 183.025 122.39V79.4907C183.025 73.834 183.026 71.0059 184.783 69.2485C186.541 67.4913 189.369 67.4907 195.025 67.4907H200.5V134.39Z" fill="white"/>
</g>
<defs>
<linearGradient id="paint0_linear_6336_13976" x1="100.5" y1="0.291016" x2="100.5" y2="200.291" gradientUnits="userSpaceOnUse">
<stop stop-color="#235AFF"/>
<stop offset="1" stop-color="#0F39B8"/>
</linearGradient>
</defs>
</svg>
